<svg width="200" height="200" viewBox="0 0 200 200" fill="none" xmlns="http://www.w3.org/2000/svg">
    <circle cx="100" cy="100" r="90" fill="#81C784"/>
    
    <circle cx="100" cy="145" r="10" fill="#FFAB91"/>
    
    <rect x="75" y="130" width="12" height="35" fill="#FFFFFF"/>
    <rect x="113" y="130" width="12" height="35" fill="#FFFFFF"/>
    
    <rect x="60" y="90" width="80" height="60" rx="15" fill="#FFFFFF"/>
    
    <path d="M70 100 Q80 110 75 120 H60 V100 Z" fill="#333333"/>
    <circle cx="110" cy="110" r="12" fill="#333333"/>
    
    <rect x="70" y="60" width="60" height="50" rx="12" fill="#FFFFFF"/>
    
    <path d="M72 62 Q65 50 75 45" stroke="#5D4037" stroke-width="4" stroke-linecap="round"/>
    <path d="M128 62 Q135 50 125 45" stroke="#5D4037" stroke-width="4" stroke-linecap="round"/>

    <rect x="82" y="90" width="36" height="18" rx="8" fill="#FFAB91"/>
    
    <circle cx="88" cy="80" r="4" fill="#333333"/>
    <circle cx="112" cy="80" r="4" fill="#333333"/>
</svg>