<svg width="300" height="300" viewBox="0 0 300 300" fill="none" xmlns="http://www.w3.org/2000/svg">
    <circle cx="150" cy="180" r="110" fill="#FFF9C4" opacity="0.5"/>

    <g transform="translate(0, -20)">
        <circle cx="100" cy="150" r="30" fill="#81C784"/>
        <circle cx="130" cy="140" r="35" fill="#A5D6A7"/>
        <path d="M180 160 L200 120 L220 160" fill="#FF7043"/>
        <path d="M200 165 L220 125 L240 165" fill="#FF7043"/>
        <path d="M200 120 L195 105 M200 120 L205 105" stroke="#4CAF50" stroke-width="3"/>
        <path d="M220 125 L215 110 M220 125 L225 110" stroke="#4CAF50" stroke-width="3"/>
    </g>

    <path d="M50 160 L70 260 H230 L250 160 Z" fill="#D7CCC8"/>
    <path d="M60 180 H240 M65 200 H235 M70 220 H230 M75 240 H225" stroke="#A1887F" stroke-width="2"/>
    <rect x="45" y="150" width="210" height="20" rx="10" fill="#8D6E63"/>

    <g transform="translate(0, -10)">
        <rect x="80" y="120" width="40" height="60" fill="#FFFFFF" stroke="#E0E0E0"/>
        <rect x="85" y="115" width="30" height="5" fill="#BBDEFB"/>
        <text x="90" y="155" font-family="Arial" font-size="12" fill="#BBDEFB">MILK</text>

        <path d="M220 170 L170 170 L170 120 Z" fill="#FFD54F"/>
        <circle cx="185" cy="140" r="5" fill="#FBC02D"/>
        <circle cx="200" cy="160" r="7" fill="#FBC02D"/>

        <circle cx="150" cy="130" r="20" fill="#EF5350"/>
        <path d="M150 110 L150 100" stroke="#5D4037" stroke-width="3"/>
        <circle cx="175" cy="145" r="18" fill="#EF5350"/>

        <ellipse cx="130" cy="170" rx="12" ry="15" fill="#F5F5F5"/>
        <ellipse cx="150" cy="175" rx="12" ry="15" fill="#FFE0B2"/>
    </g>
</svg>