<svg width="400" height="1200" viewBox="0 0 400 1200" fill="none" xmlns="http://www.w3.org/2000/svg">
    <rect width="400" height="1200" fill="#DCEDC8"/> <rect width="400" height="350" fill="#B3E5FC"/>
    <circle cx="350" cy="60" r="40" fill="#FFF176"/> <path d="M0 300 C150 280 250 280 400 320 V1200 H0 V300 Z" fill="#DCEDC8"/> 
    <path d="M0 300 C150 280 250 280 400 320" stroke="#AED581" stroke-width="8" fill="none"/>

    <path d="M200 320 
             C 200 450, 50 550, 50 700 
             C 50 900, 350 950, 350 1100 
             C 350 1180, 200 1180, 200 1200" 
          stroke="#F5F5F5" stroke-width="50" stroke-linecap="round" fill="none"/>
    <path d="M200 320 
             C 200 450, 50 550, 50 700 
             C 50 900, 350 950, 350 1100 
             C 350 1180, 200 1180, 200 1200" 
          stroke="#E0E0E0" stroke-width="54" stroke-linecap="round" fill="none" opacity="0.4"/>

    <g id="PathTexture" fill="#D7CCC8">
        <circle cx="200" cy="350" r="5"/> <circle cx="190" cy="370" r="4"/> <circle cx="210" cy="390" r="6"/>
        <circle cx="195" cy="420" r="5"/> <circle cx="180" cy="450" r="7"/> <circle cx="160" cy="480" r="4"/>
        <circle cx="120" cy="520" r="6"/> <circle cx="90" cy="550" r="5"/> <circle cx="70" cy="600" r="8"/>
        <circle cx="60" cy="650" r="6"/> <circle cx="70" cy="700" r="5"/> <circle cx="90" cy="750" r="7"/>
        <circle cx="150" cy="850" r="6"/> <circle cx="200" cy="900" r="8"/> <circle cx="250" cy="920" r="5"/>
        <circle cx="300" cy="950" r="7"/> <circle cx="330" cy="1000" r="6"/> <circle cx="340" cy="1050" r="5"/>
        <circle cx="320" cy="1100" r="8"/> <circle cx="280" cy="1150" r="6"/> <circle cx="220" cy="1180" r="7"/>
        <circle cx="205" cy="360" r="2"/> <circle cx="100" cy="600" r="3"/> <circle cx="310" cy="1020" r="2"/>
    </g>

    <g id="TheBarn" transform="translate(150, 235)">
        <rect x="20" y="40" width="80" height="60" fill="#EF5350"/>
        <path d="M10 40 L60 10 L110 40" fill="#5D4037"/>
        <rect x="50" y="65" width="20" height="35" fill="#FFFFFF"/>
        <path d="M50 65 L70 100 M70 65 L50 100" stroke="#5D4037" stroke-width="1"/>
        <circle cx="60" cy="30" r="8" fill="#FFFFFF"/>
        <rect x="105" y="30" width="20" height="70" fill="#BCAAA4"/>
        <path d="M105 30 C105 20 125 20 125 30" fill="#8D6E63"/>
    </g>

    <g transform="translate(50, 280)">
        <rect x="-4" y="0" width="8" height="20" fill="#8D6E63"/>
        <circle cx="0" cy="-10" r="20" fill="#81C784"/>
    </g>
    <g transform="translate(90, 310) scale(0.8)"> <rect x="-4" y="0" width="8" height="20" fill="#8D6E63"/>
        <circle cx="0" cy="-10" r="20" fill="#AED581"/>
    </g>
    <g transform="translate(320, 300)">
        <rect x="-5" y="0" width="10" height="30" fill="#8D6E63"/>
        <circle cx="0" cy="-15" r="25" fill="#66BB6A"/>
    </g>
     <g transform="translate(360, 340) scale(0.9)"> <rect x="-5" y="0" width="10" height="30" fill="#8D6E63"/>
        <circle cx="0" cy="-15" r="25" fill="#43A047"/>
    </g>

    <g transform="translate(350, 500)">
        <rect x="-6" y="0" width="12" height="35" fill="#8D6E63"/>
        <circle cx="0" cy="-20" r="35" fill="#43A047"/>
        <circle cx="-10" cy="-10" r="20" fill="#66BB6A"/>
    </g>
     <g transform="translate(280, 600) scale(1.1)"> <rect x="-6" y="0" width="12" height="35" fill="#8D6E63"/>
        <circle cx="0" cy="-20" r="30" fill="#81C784"/>
    </g>
     <g transform="translate(120, 550) scale(0.8)">
        <rect x="-5" y="0" width="10" height="30" fill="#8D6E63"/>
        <circle cx="0" cy="-10" r="25" fill="#AED581"/>
    </g>
    <g transform="translate(30, 600) scale(0.7)"> <rect x="-5" y="0" width="10" height="30" fill="#8D6E63"/>
        <circle cx="0" cy="-10" r="25" fill="#66BB6A"/>
    </g>

    <g transform="translate(60, 850)">
        <rect x="-8" y="0" width="16" height="40" fill="#8D6E63"/>
        <circle cx="0" cy="-25" r="40" fill="#81C784"/>
        <circle cx="15" cy="-15" r="25" fill="#A5D6A7"/>
    </g>
    <g transform="translate(120, 950) scale(0.9)"> <rect x="-5" y="0" width="10" height="30" fill="#8D6E63"/>
        <circle cx="0" cy="-10" r="30" fill="#43A047"/>
    </g>
    <g transform="translate(280, 800) scale(0.9)">
        <rect x="-5" y="0" width="10" height="30" fill="#8D6E63"/>
        <circle cx="0" cy="-10" r="30" fill="#66BB6A"/>
    </g>

    <g transform="translate(350, 1150)">
        <rect x="-5" y="0" width="10" height="25" fill="#8D6E63"/>
        <circle cx="0" cy="-10" r="20" fill="#AED581"/>
    </g>
    <g transform="translate(300, 1100) scale(1.2)"> <rect x="-5" y="0" width="10" height="25" fill="#8D6E63"/>
        <circle cx="0" cy="-10" r="20" fill="#81C784"/>
    </g>
    <g transform="translate(50, 1100) scale(1.2)">
        <rect x="-5" y="0" width="10" height="25" fill="#8D6E63"/>
        <circle cx="0" cy="-10" r="20" fill="#43A047"/>
    </g>
</svg>